<svg width="16" height="16" viewBox="0 0 16 16" fill="none" xmlns="http://www.w3.org/2000/svg">
<path d="M15.4471 8.89395C15.613 8.81081 15.7525 8.68316 15.8499 8.52527C15.9474 8.36739 15.999 8.1855 15.999 7.99995C15.999 7.8144 15.9474 7.63251 15.8499 7.47462C15.7525 7.31674 15.613 7.18909 15.4471 7.10595L1.44709 0.105946C1.2735 0.0190898 1.07839 -0.0153694 0.88555 0.00677198C0.692713 0.0289133 0.510487 0.106698 0.361102 0.230637C0.211718 0.354577 0.101633 0.519313 0.0442762 0.70475C-0.0130806 0.890187 -0.0152302 1.08831 0.0380907 1.27495L1.46709 6.27495C1.52686 6.48392 1.6531 6.66773 1.82668 6.79855C2.00026 6.92937 2.21173 7.00007 2.42909 6.99995H7.00009C7.26531 6.99995 7.51966 7.1053 7.7072 7.29284C7.89473 7.48038 8.00009 7.73473 8.00009 7.99995C8.00009 8.26516 7.89473 8.51952 7.7072 8.70705C7.51966 8.89459 7.26531 8.99995 7.00009 8.99995H2.42909C2.21173 8.99982 2.00026 9.07053 1.82668 9.20134C1.6531 9.33216 1.52686 9.51597 1.46709 9.72495L0.0390902 14.7249C-0.0143356 14.9115 -0.0123158 15.1096 0.0449057 15.2951C0.102127 15.4805 0.212076 15.6453 0.361344 15.7693C0.510612 15.8934 0.692747 15.9713 0.885539 15.9936C1.07833 16.0159 1.27345 15.9816 1.44709 15.8949L15.4471 8.89495V8.89395Z" fill="white"/>
</svg>
